<?xml version="1.0" encoding="UTF-8" standalone="no"?>
<!-- Created with Inkscape (http://www.inkscape.org/) -->

<svg
   xmlns:dc="http://purl.org/dc/elements/1.1/"
   xmlns:cc="http://creativecommons.org/ns#"
   xmlns:rdf="http://www.w3.org/1999/02/22-rdf-syntax-ns#"
   xmlns:svg="http://www.w3.org/2000/svg"
   xmlns="http://www.w3.org/2000/svg"
   xmlns:sodipodi="http://sodipodi.sourceforge.net/DTD/sodipodi-0.dtd"
   xmlns:inkscape="http://www.inkscape.org/namespaces/inkscape"
   width="476.48663mm"
   height="179.55713mm"
   viewBox="0 0 476.48663 179.55713"
   version="1.1"
   id="svg1104"
   inkscape:version="0.92.4 (5da689c313, 2019-01-14)"
   sodipodi:docname="mockup-kaos-polo.svg">
  <defs
     id="defs1098" />
  <sodipodi:namedview
     id="base"
     pagecolor="#ffffff"
     bordercolor="#666666"
     borderopacity="1.0"
     inkscape:pageopacity="0.0"
     inkscape:pageshadow="2"
     inkscape:zoom="0.7"
     inkscape:cx="729.6489"
     inkscape:cy="343.17298"
     inkscape:document-units="mm"
     inkscape:current-layer="layer1"
     showgrid="false"
     inkscape:pagecheckerboard="true"
     inkscape:snap-global="false" />
  <metadata
     id="metadata1101">
    <rdf:RDF>
      <cc:Work
         rdf:about="">
        <dc:format>image/svg+xml</dc:format>
        <dc:type
           rdf:resource="http://purl.org/dc/dcmitype/StillImage" />
        <dc:title></dc:title>
      </cc:Work>
    </rdf:RDF>
  </metadata>
  <g
     inkscape:label="Layer 1"
     inkscape:groupmode="layer"
     id="layer1"
     transform="translate(318.37427,-43.935727)">
    <g
       id="g2366">
      <path
         sodipodi:nodetypes="ccssccssccc"
         inkscape:connector-curvature="0"
         id="path292"
         d="m -122.73853,87.498333 v 6.594875 c 0,0 -6.0336,10.196342 -7.67063,18.895962 -1.63703,8.69961 -0.60804,40.50469 -0.42095,50.79456 0.18709,10.28989 -0.23386,21.1878 -0.23386,21.1878 6.03517,7.06528 35.64988,7.92016 44.5271,-0.18709 0,0 -3.72439,-28.35793 -1.07856,-48.46627 2.64583,-20.10832 2.6394,-28.18864 1.88516,-34.89192 -0.98842,-8.784546 -8.43794,-20.369256 -10.71563,-22.258074 l -0.23151,-6.680729 c -6.12576,-0.454337 -12.66633,-0.02474 -26.06112,15.010886 z"
         style="opacity:1;vector-effect:none;fill:#ffffff;fill-opacity:1;stroke:#868e96;stroke-width:1.5;stroke-linecap:butt;stroke-linejoin:miter;stroke-miterlimit:4;stroke-dasharray:none;stroke-dashoffset:0;stroke-opacity:1;paint-order:fill markers stroke" />
      <path
         id="path1481"
         transform="scale(0.26458333)"
         d="m -385.26758,462.78711 c -16.69644,0 -31.25,5.625 -31.25,5.625 l -1.06054,6.53906 c -4.36139,9.74037 81.07276,16.86216 80.25585,0.17774 l 0.21289,-0.78516 c -4.0663,-3.8682 -11.96447,-7.99653 -17.17578,-9.5918 -6.5625,-2.00889 -14.286,-1.96484 -30.98242,-1.96484 z"
         style="opacity:1;vector-effect:none;fill:#d2d5d8;fill-opacity:1;stroke:none;stroke-width:3.77952766;stroke-linecap:butt;stroke-linejoin:miter;stroke-miterlimit:4;stroke-dasharray:none;stroke-dashoffset:0;stroke-opacity:1;paint-order:fill markers stroke"
         inkscape:connector-curvature="0" />
      <path
         sodipodi:nodetypes="ccccc"
         inkscape:connector-curvature="0"
         id="path294"
         d="m -97.367932,74.133417 c -10.531678,1.164651 -16.404298,7.827877 -22.178948,13.944708 l 1.08985,1.03125 c 5.78299,-6.125665 11.1676,-12.357676 21.136997,-13.460147 z"
         style="color:#000000;font-style:normal;font-variant:normal;font-weight:normal;font-stretch:normal;font-size:medium;line-height:normal;font-family:sans-serif;font-variant-ligatures:normal;font-variant-position:normal;font-variant-caps:normal;font-variant-numeric:normal;font-variant-alternates:normal;font-feature-settings:normal;text-indent:0;text-align:start;text-decoration:none;text-decoration-line:none;text-decoration-style:solid;text-decoration-color:#000000;letter-spacing:normal;word-spacing:normal;text-transform:none;writing-mode:lr-tb;direction:ltr;text-orientation:mixed;dominant-baseline:auto;baseline-shift:baseline;text-anchor:start;white-space:normal;shape-padding:0;clip-rule:nonzero;display:inline;overflow:visible;visibility:visible;opacity:1;isolation:auto;mix-blend-mode:normal;color-interpolation:sRGB;color-interpolation-filters:linearRGB;solid-color:#000000;solid-opacity:1;vector-effect:none;fill:#e15361;fill-opacity:1;fill-rule:nonzero;stroke:none;stroke-width:1.5;stroke-linecap:butt;stroke-linejoin:miter;stroke-miterlimit:4;stroke-dasharray:none;stroke-dashoffset:0;stroke-opacity:1;paint-order:fill markers stroke;color-rendering:auto;image-rendering:auto;shape-rendering:auto;text-rendering:auto;enable-background:accumulate" />
      <path
         sodipodi:nodetypes="ccc"
         inkscape:connector-curvature="0"
         id="path296"
         d="m -122.47428,87.03953 8.00364,3.505729 c 5.62353,-4.72757 10.26206,-11.803987 17.99167,-11.509375"
         style="opacity:1;vector-effect:none;fill:none;fill-opacity:1;stroke:#868e96;stroke-width:0.5;stroke-linecap:butt;stroke-linejoin:miter;stroke-miterlimit:4;stroke-dasharray:none;stroke-dashoffset:0;stroke-opacity:1;paint-order:fill markers stroke" />
      <path
         inkscape:connector-curvature="0"
         id="path298"
         d="m -122.63965,94.580155 5.02708,-5.457031"
         style="opacity:1;vector-effect:none;fill:none;fill-opacity:1;stroke:#868e96;stroke-width:0.5;stroke-linecap:butt;stroke-linejoin:miter;stroke-miterlimit:4;stroke-dasharray:none;stroke-dashoffset:0;stroke-opacity:1;paint-order:fill markers stroke" />
      <path
         inkscape:connector-curvature="0"
         id="path300"
         d="m -106.20241,82.872343 3.40651,5.754687"
         style="opacity:1;vector-effect:none;fill:none;fill-opacity:1;stroke:#868e96;stroke-width:0.5;stroke-linecap:butt;stroke-linejoin:miter;stroke-miterlimit:4;stroke-dasharray:none;stroke-dashoffset:0;stroke-opacity:1;paint-order:fill markers stroke" />
      <path
         sodipodi:nodetypes="cssssssccccc"
         inkscape:connector-curvature="0"
         id="path302"
         d="m -110.39067,122.671 c -1.13804,-0.51667 -1.30492,-2.49791 -1.51961,-3.45134 -0.56835,-2.52396 0.0243,-4.9244 -0.30188,-7.81048 -0.36951,-3.26985 -1.16259,-6.38858 -0.93394,-9.54811 0.45966,-6.351711 3.34153,-12.014789 10.14543,-13.427294 8.05795,-1.672849 13.40602,4.831264 15.32276,13.028864 0.66723,2.85363 0.31735,6.04821 0.32602,9.1881 0.0143,5.18711 -0.12506,10.22497 -1.43004,13.32988 l -0.46773,1.73057 c 0.21614,4.41442 -22.38851,2.53034 -21.23456,-0.0468 l 0.28063,-1.73057 z"
         style="opacity:1;vector-effect:none;fill:none;fill-opacity:1;stroke:#868e96;stroke-width:0.5;stroke-linecap:butt;stroke-linejoin:miter;stroke-miterlimit:4;stroke-dasharray:none;stroke-dashoffset:0;stroke-opacity:1;paint-order:fill markers stroke" />
      <path
         inkscape:connector-curvature="0"
         id="path1384"
         d="m -110.43745,122.71777 0.21048,1.80073 1.38164,-0.99776 3.37816,-0.86226 5.882256,-0.36617 3.08287,0.22443 2.185172,0.38979 2.315105,0.59058 1.771763,0.98038 0.980345,1.2337 0.165396,-0.59586 0.302334,-1.13471 c 0,0 -1.105532,-1.47569 -2.770991,-2.04266 -1.665457,-0.56696 -5.91769,-1.26386 -5.91769,-1.26386 l -4.16955,-0.0354 c 0,0 -3.68527,0.17718 -3.83882,0.17718 -0.15355,0 -3.47266,0.8032 -3.47266,0.8032 l -1.34654,0.79138 z"
         style="opacity:1;vector-effect:none;fill:#e15361;fill-opacity:1;stroke:none;stroke-width:1;stroke-linecap:butt;stroke-linejoin:miter;stroke-miterlimit:4;stroke-dasharray:none;stroke-dashoffset:0;stroke-opacity:1;paint-order:fill markers stroke" />
      <path
         sodipodi:nodetypes="cc"
         inkscape:connector-curvature="0"
         id="path304"
         d="m -110.22697,124.5185 c 2.02002,-3.01485 19.12012,-3.26719 20.88377,1.23946"
         style="opacity:1;vector-effect:none;fill:none;fill-opacity:1;stroke:#868e96;stroke-width:0.5;stroke-linecap:butt;stroke-linejoin:miter;stroke-miterlimit:4;stroke-dasharray:none;stroke-dashoffset:0;stroke-opacity:1;paint-order:fill markers stroke" />
      <path
         sodipodi:nodetypes="cc"
         inkscape:connector-curvature="0"
         id="path306"
         d="m -110.43745,122.71777 c 1.05624,-2.62666 19.57329,-3.52255 21.63213,1.44993"
         style="opacity:1;vector-effect:none;fill:none;fill-opacity:1;stroke:#868e96;stroke-width:0.5;stroke-linecap:butt;stroke-linejoin:miter;stroke-miterlimit:4;stroke-dasharray:none;stroke-dashoffset:0;stroke-opacity:1;paint-order:fill markers stroke" />
      <path
         sodipodi:nodetypes="cc"
         inkscape:connector-curvature="0"
         id="path308"
         d="m -103.22585,128.04994 c -4.09901,22.8286 -1.72887,41.96054 -1.25677,62.17708"
         style="opacity:1;vector-effect:none;fill:none;fill-opacity:1;stroke:#868e96;stroke-width:0.5;stroke-linecap:butt;stroke-linejoin:miter;stroke-miterlimit:4;stroke-dasharray:none;stroke-dashoffset:0;stroke-opacity:1;paint-order:fill markers stroke" />
      <path
         sodipodi:nodetypes="cc"
         inkscape:connector-curvature="0"
         id="path310"
         d="m -131.0071,182.81869 c 12.20786,8.17374 37.21579,4.62178 43.85469,0.19844"
         style="opacity:1;vector-effect:none;fill:none;fill-opacity:1;stroke:#868e96;stroke-width:0.5;stroke-linecap:butt;stroke-linejoin:miter;stroke-miterlimit:4;stroke-dasharray:none;stroke-dashoffset:0;stroke-opacity:1;paint-order:fill markers stroke" />
      <path
         inkscape:connector-curvature="0"
         id="path312"
         d="m -125.66179,105.8564 c 0,0 4.23288,-0.11692 4.44336,0.16371 0.21047,0.28063 -2.71279,6.52471 -3.04019,11.62288 -0.32741,5.09817 -0.23386,5.49573 -0.39756,5.77636 -0.16371,0.28063 -3.41437,4.18611 -3.41437,4.18611 0,0 -1.87089,-3.29744 -1.87089,-3.48453 0,-0.18708 0.35079,-7.69402 1.6838,-11.64627 1.33301,-3.95224 2.59585,-6.61826 2.59585,-6.61826 z"
         style="opacity:1;vector-effect:none;fill:#e15361;fill-opacity:1;stroke:#868e96;stroke-width:0.5;stroke-linecap:butt;stroke-linejoin:miter;stroke-miterlimit:4;stroke-dasharray:none;stroke-dashoffset:0;stroke-opacity:1;paint-order:fill markers stroke" />
      <path
         inkscape:connector-curvature="0"
         id="path1326"
         d="m -125.66179,105.8564 4.42165,0.14611 -0.7684,2.4806 -1.07743,0.0501 -3.58308,-0.12528 z"
         style="opacity:1;vector-effect:none;fill:#8d1924;fill-opacity:1;stroke:none;stroke-width:1;stroke-linecap:butt;stroke-linejoin:miter;stroke-miterlimit:4;stroke-dasharray:none;stroke-dashoffset:0;stroke-opacity:1;paint-order:fill markers stroke" />
      <path
         sodipodi:nodetypes="cc"
         inkscape:connector-curvature="0"
         id="path314"
         d="m -126.87787,108.47565 4.70061,0.11693"
         style="opacity:1;vector-effect:none;fill:none;fill-opacity:1;stroke:#868e96;stroke-width:0.5;stroke-linecap:butt;stroke-linejoin:miter;stroke-miterlimit:4;stroke-dasharray:none;stroke-dashoffset:0;stroke-opacity:1;paint-order:fill markers stroke" />
      <path
         sodipodi:nodetypes="ccc"
         inkscape:connector-curvature="0"
         id="path316"
         d="m -128.11733,104.17261 c -0.55395,0.0396 -1.75291,1.16756 -1.23946,1.96443 0.21048,0.81851 0.44434,0.63142 0.44434,0.63142"
         style="opacity:1;vector-effect:none;fill:none;fill-opacity:1;stroke:#868e96;stroke-width:1;stroke-linecap:butt;stroke-linejoin:miter;stroke-miterlimit:4;stroke-dasharray:none;stroke-dashoffset:0;stroke-opacity:1;paint-order:fill markers stroke" />
      <path
         style="opacity:1;vector-effect:none;fill:none;fill-opacity:1;stroke:#868e96;stroke-width:1;stroke-linecap:butt;stroke-linejoin:miter;stroke-miterlimit:4;stroke-dasharray:none;stroke-dashoffset:0;stroke-opacity:1;paint-order:fill markers stroke"
         d="m -125.00698,97.437423 c -0.55395,0.0396 -1.75291,1.16755 -1.23946,1.96443 0.21048,0.818507 0.44434,0.631417 0.44434,0.631417"
         id="path318"
         inkscape:connector-curvature="0"
         sodipodi:nodetypes="ccc" />
      <path
         inkscape:connector-curvature="0"
         id="path743"
         d="m -32.109375,103.67383 -0.07031,0.99805 c -0.01711,-0.001 0.116653,0.0337 0.253907,0.12695 0.137253,0.0932 0.290053,0.23102 0.408203,0.38086 0.11815,0.14983 0.198127,0.31129 0.224609,0.42969 0.02648,0.11839 0.01808,0.17821 -0.0332,0.25781 l -0.04297,0.0664 -0.01953,0.0781 c -0.09183,0.3571 -0.2028,0.4028 -0.0918,0.33008 0.0555,-0.0364 0.176728,-0.0652 0.263672,-0.0488 0.08694,0.0164 0.179688,0.0859 0.179688,0.0859 l -0.625,0.77929 c 0,0 0.122395,0.0913 0.259765,0.11719 0.137371,0.0259 0.330427,-0.006 0.470703,-0.0977 0.24946,-0.16343 0.348951,-0.44055 0.455079,-0.81445 0.182015,-0.3097 0.228233,-0.66828 0.160156,-0.97266 -0.07123,-0.31844 -0.229363,-0.59336 -0.416016,-0.83007 -0.186652,-0.23671 -0.403555,-0.43551 -0.630859,-0.58985 -0.227305,-0.15434 -0.45201,-0.27585 -0.746094,-0.29687 z"
         style="color:#000000;font-style:normal;font-variant:normal;font-weight:normal;font-stretch:normal;font-size:medium;line-height:normal;font-family:sans-serif;font-variant-ligatures:normal;font-variant-position:normal;font-variant-caps:normal;font-variant-numeric:normal;font-variant-alternates:normal;font-feature-settings:normal;text-indent:0;text-align:start;text-decoration:none;text-decoration-line:none;text-decoration-style:solid;text-decoration-color:#000000;letter-spacing:normal;word-spacing:normal;text-transform:none;writing-mode:lr-tb;direction:ltr;text-orientation:mixed;dominant-baseline:auto;baseline-shift:baseline;text-anchor:start;white-space:normal;shape-padding:0;clip-rule:nonzero;display:inline;overflow:visible;visibility:visible;opacity:1;isolation:auto;mix-blend-mode:normal;color-interpolation:sRGB;color-interpolation-filters:linearRGB;solid-color:#000000;solid-opacity:1;vector-effect:none;fill:#8d1924;fill-opacity:1;fill-rule:nonzero;stroke:none;stroke-width:1;stroke-linecap:butt;stroke-linejoin:miter;stroke-miterlimit:4;stroke-dasharray:none;stroke-dashoffset:0;stroke-opacity:1;paint-order:fill markers stroke;color-rendering:auto;image-rendering:auto;shape-rendering:auto;text-rendering:auto;enable-background:accumulate" />
      <path
         inkscape:connector-curvature="0"
         id="path745"
         d="m -35.21875,96.939453 -0.07227,0.996094 c -0.01711,-0.0012 0.116653,0.03376 0.253907,0.126953 0.137253,0.09319 0.292006,0.232976 0.410156,0.382812 0.11815,0.149837 0.198127,0.309335 0.224609,0.427735 0.02648,0.1184 0.01808,0.178215 -0.0332,0.257812 l -0.04492,0.06836 -0.01953,0.07813 c -0.09183,0.357096 -0.200848,0.40085 -0.08984,0.328125 0.0555,-0.03636 0.174775,-0.06326 0.261719,-0.04687 0.08694,0.01638 0.179687,0.08398 0.179687,0.08398 l -0.623046,0.781256 c 0,0 0.122395,0.0913 0.259765,0.11719 0.13737,0.0259 0.328473,-0.006 0.46875,-0.0977 0.249005,-0.16314 0.349107,-0.4398 0.455078,-0.812505 0.183939,-0.310514 0.230454,-0.670996 0.16211,-0.976562 -0.07123,-0.318451 -0.229363,-0.591414 -0.416016,-0.828125 -0.186653,-0.236711 -0.405508,-0.435507 -0.632812,-0.589844 -0.227305,-0.154337 -0.450059,-0.275852 -0.744141,-0.296875 z"
         style="color:#000000;font-style:normal;font-variant:normal;font-weight:normal;font-stretch:normal;font-size:medium;line-height:normal;font-family:sans-serif;font-variant-ligatures:normal;font-variant-position:normal;font-variant-caps:normal;font-variant-numeric:normal;font-variant-alternates:normal;font-feature-settings:normal;text-indent:0;text-align:start;text-decoration:none;text-decoration-line:none;text-decoration-style:solid;text-decoration-color:#000000;letter-spacing:normal;word-spacing:normal;text-transform:none;writing-mode:lr-tb;direction:ltr;text-orientation:mixed;dominant-baseline:auto;baseline-shift:baseline;text-anchor:start;white-space:normal;shape-padding:0;clip-rule:nonzero;display:inline;overflow:visible;visibility:visible;opacity:1;isolation:auto;mix-blend-mode:normal;color-interpolation:sRGB;color-interpolation-filters:linearRGB;solid-color:#000000;solid-opacity:1;vector-effect:none;fill:#8d1924;fill-opacity:1;fill-rule:nonzero;stroke:none;stroke-width:1;stroke-linecap:butt;stroke-linejoin:miter;stroke-miterlimit:4;stroke-dasharray:none;stroke-dashoffset:0;stroke-opacity:1;paint-order:fill markers stroke;color-rendering:auto;image-rendering:auto;shape-rendering:auto;text-rendering:auto;enable-background:accumulate" />
      <path
         style="opacity:1;vector-effect:none;fill:#ffffff;fill-opacity:1;stroke:#868e96;stroke-width:1.5;stroke-linecap:butt;stroke-linejoin:miter;stroke-miterlimit:4;stroke-dasharray:none;stroke-dashoffset:0;stroke-opacity:1;paint-order:fill markers stroke"
         d="m -37.5234,87.498333 v 6.594875 c 0,0 6.0336,10.196342 7.67063,18.895962 1.63703,8.69961 0.60804,40.50469 0.42095,50.79456 -0.18709,10.28989 0.23386,21.1878 0.23386,21.1878 -6.03517,7.06528 -35.64988,7.92016 -44.5271,-0.18709 0,0 3.72439,-28.35793 1.07856,-48.46627 -2.64583,-20.10832 -2.6394,-28.18864 -1.88516,-34.89192 0.98842,-8.784546 8.43794,-20.369256 10.71563,-22.258074 l 0.23151,-6.680729 c 6.12576,-0.454337 12.66633,-0.02474 26.06112,15.010886 z"
         id="path719"
         inkscape:connector-curvature="0"
         sodipodi:nodetypes="ccssccssccc" />
      <path
         inkscape:connector-curvature="0"
         style="opacity:1;vector-effect:none;fill:#d2d5d8;fill-opacity:1;stroke:none;stroke-width:1;stroke-linecap:butt;stroke-linejoin:miter;stroke-miterlimit:4;stroke-dasharray:none;stroke-dashoffset:0;stroke-opacity:1;paint-order:fill markers stroke"
         d="m -58.195779,122.44575 c 4.4176,0 8.268229,1.48829 8.268229,1.48829 l 0.280601,1.73012 c 1.153951,2.57714 -21.450501,4.46145 -21.23436,0.047 l -0.05633,-0.20774 c 1.075875,-1.02346 3.165599,-2.11575 4.544425,-2.53783 1.736328,-0.53152 3.779838,-0.51987 8.197432,-0.51987 z"
         id="path1486" />
      <path
         sodipodi:nodetypes="ccccc"
         inkscape:connector-curvature="0"
         id="path721"
         d="m -62.887489,74.064993 -0.05131,1.533948 c 9.9694,1.102471 15.349167,7.384769 21.132157,13.510434 l 1.091797,-1.03125 C -46.489495,81.961294 -52.35581,75.229644 -62.887489,74.064993 Z"
         style="color:#000000;font-style:normal;font-variant:normal;font-weight:normal;font-stretch:normal;font-size:medium;line-height:normal;font-family:sans-serif;font-variant-ligatures:normal;font-variant-position:normal;font-variant-caps:normal;font-variant-numeric:normal;font-variant-alternates:normal;font-feature-settings:normal;text-indent:0;text-align:start;text-decoration:none;text-decoration-line:none;text-decoration-style:solid;text-decoration-color:#000000;letter-spacing:normal;word-spacing:normal;text-transform:none;writing-mode:lr-tb;direction:ltr;text-orientation:mixed;dominant-baseline:auto;baseline-shift:baseline;text-anchor:start;white-space:normal;shape-padding:0;clip-rule:nonzero;display:inline;overflow:visible;visibility:visible;opacity:1;isolation:auto;mix-blend-mode:normal;color-interpolation:sRGB;color-interpolation-filters:linearRGB;solid-color:#000000;solid-opacity:1;vector-effect:none;fill:#e15361;fill-opacity:1;fill-rule:nonzero;stroke:none;stroke-width:1.5;stroke-linecap:butt;stroke-linejoin:miter;stroke-miterlimit:4;stroke-dasharray:none;stroke-dashoffset:0;stroke-opacity:1;paint-order:fill markers stroke;color-rendering:auto;image-rendering:auto;shape-rendering:auto;text-rendering:auto;enable-background:accumulate" />
      <path
         style="opacity:1;vector-effect:none;fill:none;fill-opacity:1;stroke:#868e96;stroke-width:0.5;stroke-linecap:butt;stroke-linejoin:miter;stroke-miterlimit:4;stroke-dasharray:none;stroke-dashoffset:0;stroke-opacity:1;paint-order:fill markers stroke"
         d="m -37.78765,87.03953 -8.00364,3.505729 c -5.62353,-4.72757 -10.26206,-11.803987 -17.99167,-11.509375"
         id="path723"
         inkscape:connector-curvature="0"
         sodipodi:nodetypes="ccc" />
      <path
         style="opacity:1;vector-effect:none;fill:none;fill-opacity:1;stroke:#868e96;stroke-width:0.5;stroke-linecap:butt;stroke-linejoin:miter;stroke-miterlimit:4;stroke-dasharray:none;stroke-dashoffset:0;stroke-opacity:1;paint-order:fill markers stroke"
         d="m -37.62228,94.580155 -5.02708,-5.457031"
         id="path725"
         inkscape:connector-curvature="0" />
      <path
         style="opacity:1;vector-effect:none;fill:none;fill-opacity:1;stroke:#868e96;stroke-width:0.5;stroke-linecap:butt;stroke-linejoin:miter;stroke-miterlimit:4;stroke-dasharray:none;stroke-dashoffset:0;stroke-opacity:1;paint-order:fill markers stroke"
         d="m -54.05952,82.872343 -3.40651,5.754687"
         id="path727"
         inkscape:connector-curvature="0" />
      <path
         style="opacity:1;vector-effect:none;fill:none;fill-opacity:1;stroke:#868e96;stroke-width:0.5;stroke-linecap:butt;stroke-linejoin:miter;stroke-miterlimit:4;stroke-dasharray:none;stroke-dashoffset:0;stroke-opacity:1;paint-order:fill markers stroke"
         d="m -49.87126,122.671 c 1.13804,-0.51667 1.30492,-2.49791 1.51961,-3.45134 0.56835,-2.52396 -0.0243,-4.9244 0.30188,-7.81048 0.36951,-3.26985 1.16259,-6.38858 0.93394,-9.54811 -0.45966,-6.351711 -3.34153,-12.014789 -10.14543,-13.427294 -8.05795,-1.672849 -13.40602,4.831264 -15.32276,13.028864 -0.66723,2.85363 -0.31735,6.04821 -0.32602,9.1881 -0.0143,5.18711 0.12506,10.22497 1.43004,13.32988 l 0.46773,1.73057 c -0.21614,4.41442 22.38851,2.53034 21.23456,-0.0468 l -0.28063,-1.73057 z"
         id="path729"
         inkscape:connector-curvature="0"
         sodipodi:nodetypes="cssssssccccc" />
      <path
         style="opacity:1;vector-effect:none;fill:#e15361;fill-opacity:1;stroke:none;stroke-width:1;stroke-linecap:butt;stroke-linejoin:miter;stroke-miterlimit:4;stroke-dasharray:none;stroke-dashoffset:0;stroke-opacity:1;paint-order:fill markers stroke"
         d="m -49.82448,122.71777 -0.21048,1.80073 -1.38164,-0.99776 -3.37816,-0.86226 -5.882256,-0.36617 -3.082875,0.22443 -2.18517,0.38979 -2.3151,0.59058 -1.77176,0.98038 -0.98035,1.2337 -0.1654,-0.59586 -0.30233,-1.13471 c 0,0 1.10553,-1.47569 2.77099,-2.04266 1.66546,-0.56696 5.91769,-1.26386 5.91769,-1.26386 l 4.169551,-0.0354 c 0,0 3.68527,0.17718 3.83882,0.17718 0.15355,0 3.47266,0.8032 3.47266,0.8032 l 1.34654,0.79138 z"
         id="path1416"
         inkscape:connector-curvature="0" />
      <path
         style="opacity:1;vector-effect:none;fill:none;fill-opacity:1;stroke:#868e96;stroke-width:0.5;stroke-linecap:butt;stroke-linejoin:miter;stroke-miterlimit:4;stroke-dasharray:none;stroke-dashoffset:0;stroke-opacity:1;paint-order:fill markers stroke"
         d="m -50.03496,124.5185 c -2.02002,-3.01485 -19.12012,-3.26719 -20.88377,1.23946"
         id="path731"
         inkscape:connector-curvature="0"
         sodipodi:nodetypes="cc" />
      <path
         style="opacity:1;vector-effect:none;fill:none;fill-opacity:1;stroke:#868e96;stroke-width:0.5;stroke-linecap:butt;stroke-linejoin:miter;stroke-miterlimit:4;stroke-dasharray:none;stroke-dashoffset:0;stroke-opacity:1;paint-order:fill markers stroke"
         d="m -49.82448,122.71777 c -1.05624,-2.62666 -19.57329,-3.52255 -21.63213,1.44993"
         id="path733"
         inkscape:connector-curvature="0"
         sodipodi:nodetypes="cc" />
      <path
         style="opacity:1;vector-effect:none;fill:none;fill-opacity:1;stroke:#868e96;stroke-width:0.5;stroke-linecap:butt;stroke-linejoin:miter;stroke-miterlimit:4;stroke-dasharray:none;stroke-dashoffset:0;stroke-opacity:1;paint-order:fill markers stroke"
         d="m -57.03608,128.04994 c 4.09901,22.8286 1.72887,41.96054 1.25677,62.17708"
         id="path735"
         inkscape:connector-curvature="0"
         sodipodi:nodetypes="cc" />
      <path
         style="opacity:1;vector-effect:none;fill:none;fill-opacity:1;stroke:#868e96;stroke-width:0.5;stroke-linecap:butt;stroke-linejoin:miter;stroke-miterlimit:4;stroke-dasharray:none;stroke-dashoffset:0;stroke-opacity:1;paint-order:fill markers stroke"
         d="m -29.25483,182.81869 c -12.20786,8.17374 -37.21579,4.62178 -43.85469,0.19844"
         id="path737"
         inkscape:connector-curvature="0"
         sodipodi:nodetypes="cc" />
    </g>
    <g
       id="g2333">
      <path
         sodipodi:nodetypes="ccccccccccccccccccccc"
         inkscape:connector-curvature="0"
         id="path1312"
         d="m -258.97621,188.49313 c 2.06082,-30.48033 2.14361,-51.25031 0.28449,-62.48727 l -4.07586,4.87766 -0.53454,1.80407 c -7.6289,-0.92372 -13.09106,-4.01418 -18.64205,-7.01582 l 1.06908,-3.40769 c -1.44391,-6.7324 9.74197,-30.735452 15.03391,-32.00553 l 23.15223,-8.619441 4.71062,-5.813111 c 4.10203,-1.853528 9.49262,-1.33635 12.642,-1.33635 3.14939,0 8.53997,-0.517178 12.642,1.33635 l 4.60299,6.033134 23.25986,8.399418 c 5.29194,1.270078 16.47782,25.27313 15.03391,32.00553 l 1.06908,3.40769 c -5.55099,3.00164 -11.01315,6.0921 -18.64205,7.01582 l -0.53454,-1.80407 -4.07586,-4.87766 c -1.85912,11.23696 -1.77633,32.00694 0.28449,62.48727 -9.22871,6.00976 -21.19339,7.09479 -33.63988,6.73553 -12.44649,0.35926 -24.41117,-0.72577 -33.63988,-6.73553 z"
         style="opacity:1;vector-effect:none;fill:#ffffff;fill-opacity:1;stroke:none;stroke-width:1;stroke-linecap:butt;stroke-linejoin:miter;stroke-miterlimit:4;stroke-dasharray:none;stroke-dashoffset:0;stroke-opacity:1;paint-order:fill markers stroke" />
      <path
         inkscape:connector-curvature="0"
         id="path1316"
         d="m -212.5795,76.235355 3.03895,3.381087 2.88207,5.338913 1.99684,5.294961 0.72821,2.378604 -2.73273,-0.658059 -4.02575,-0.918739 -3.15712,-0.283972 -0.76223,0.537853 0.33073,1.322917 -1.40598,0.344202 -6.39776,2.405427 -2.03793,1.202711 0.70158,-1.286234 2.57247,-3.390982 2.3052,-2.622582 2.48895,-2.706103 1.41987,-1.804069 1.35305,-2.789627 0.32347,-2.062194 z"
         style="opacity:1;vector-effect:none;fill:#ffffff;fill-opacity:1;stroke:none;stroke-width:1;stroke-linecap:butt;stroke-linejoin:miter;stroke-miterlimit:4;stroke-dasharray:none;stroke-dashoffset:0;stroke-opacity:1;paint-order:fill markers stroke" />
      <path
         inkscape:connector-curvature="0"
         id="path1314"
         d="m -237.97833,75.825997 -4.13904,5.467715 -2.45685,5.669643 -2.16501,5.665565 1.05471,-0.350277 4.03962,-1.08668 4.34673,-0.448848 1.23676,0.562888 v 0 l -0.33073,1.322917 2.02328,0.641911 7.5359,3.071058 0.11812,0.07087 -3.09468,-4.677455 -3.25166,-3.38224 -3.0322,-3.657566 -1.39378,-2.834822 -0.23624,-5.173549 z"
         style="opacity:1;vector-effect:none;fill:#ffffff;fill-opacity:1;stroke:none;stroke-width:1;stroke-linecap:butt;stroke-linejoin:miter;stroke-miterlimit:4;stroke-dasharray:none;stroke-dashoffset:0;stroke-opacity:1;paint-order:fill markers stroke" />
      <path
         sodipodi:nodetypes="cccccccccccccccccccc"
         inkscape:connector-curvature="0"
         id="path1302"
         d="m -237.52606,81.28963 0.93659,2.342808 c 0.33063,1.291685 2.05413,3.047724 3.52825,4.720625 l 2.02328,2.035701 2.97656,3.732514 2.14974,3.330914 0.5753,0.940864 2.02328,-3.185097 1.91351,-2.740326 1.77176,-2.14974 2.59859,-2.669458 1.65364,-1.771764 1.67727,-3.023809 0.55169,-1.563243 -3.64637,-0.444754 -6.30747,-0.118118 -5.40979,0.07087 -3.77976,0.118115 -3.94513,0.165364 z"
         style="opacity:1;vector-effect:none;fill:#d2d5d8;fill-opacity:1;stroke:none;stroke-width:1;stroke-linecap:butt;stroke-linejoin:miter;stroke-miterlimit:4;stroke-dasharray:none;stroke-dashoffset:0;stroke-opacity:1;paint-order:fill markers stroke" />
      <path
         inkscape:connector-curvature="0"
         id="path1298"
         d="m -237.97833,75.825997 0.45227,5.463635 c 0,0 3.36455,-0.510682 5.73656,-0.510682 2.37202,0 5.02801,-0.03341 8.30207,-0.05011 3.27405,-0.0167 5.89663,0.01669 5.89663,0.01669 l 3.64155,0.300677 0.80265,0.243412 0.5671,-5.054264 -1.67043,-1.102487 -11.60952,-0.751694 -5.79641,0.133633 -4.44336,0.217156 z"
         style="opacity:1;vector-effect:none;fill:#ffffff;fill-opacity:1;stroke:none;stroke-width:1;stroke-linecap:butt;stroke-linejoin:miter;stroke-miterlimit:4;stroke-dasharray:none;stroke-dashoffset:0;stroke-opacity:1;paint-order:fill markers stroke" />
      <path
         inkscape:connector-curvature="0"
         id="path1324"
         d="m -281.94418,125.67177 1.0691,-3.40769 1.74546,1.21118 6.48129,3.10701 5.91336,2.23838 4.55204,1.21095 -1.11919,2.65599 -6.07215,-1.26106 -8.25196,-3.27406 z"
         style="opacity:1;vector-effect:none;fill:#e15361;fill-opacity:1;stroke:none;stroke-width:1;stroke-linecap:butt;stroke-linejoin:miter;stroke-miterlimit:4;stroke-dasharray:none;stroke-dashoffset:0;stroke-opacity:1;paint-order:fill markers stroke" />
      <path
         style="opacity:1;vector-effect:none;fill:none;fill-opacity:1;stroke:#868e96;stroke-width:0.5;stroke-linecap:butt;stroke-linejoin:miter;stroke-miterlimit:4;stroke-dasharray:none;stroke-dashoffset:0;stroke-opacity:1;paint-order:fill markers stroke"
         d="m -262.18293,130.0316 c -5.97774,-1.42081 -12.66241,-3.92331 -18.69216,-7.76752"
         id="path170"
         inkscape:connector-curvature="0"
         sodipodi:nodetypes="cc" />
      <path
         style="opacity:1;vector-effect:none;fill:none;fill-opacity:1;stroke:#868e96;stroke-width:0.5;stroke-linecap:butt;stroke-linejoin:miter;stroke-miterlimit:4;stroke-dasharray:none;stroke-dashoffset:0;stroke-opacity:1;paint-order:fill markers stroke"
         d="m -258.69172,126.00586 c -1.95717,-11.72214 -3.84651,-23.41345 -7.14946,-35.74731"
         id="path172"
         inkscape:connector-curvature="0"
         sodipodi:nodetypes="cc" />
      <path
         style="color:#000000;font-style:normal;font-variant:normal;font-weight:normal;font-stretch:normal;font-size:medium;line-height:normal;font-family:sans-serif;font-variant-ligatures:normal;font-variant-position:normal;font-variant-caps:normal;font-variant-numeric:normal;font-variant-alternates:normal;font-feature-settings:normal;text-indent:0;text-align:start;text-decoration:none;text-decoration-line:none;text-decoration-style:solid;text-decoration-color:#000000;letter-spacing:normal;word-spacing:normal;text-transform:none;writing-mode:lr-tb;direction:ltr;text-orientation:mixed;dominant-baseline:auto;baseline-shift:baseline;text-anchor:start;white-space:normal;shape-padding:0;clip-rule:nonzero;display:inline;overflow:visible;visibility:visible;opacity:1;isolation:auto;mix-blend-mode:normal;color-interpolation:sRGB;color-interpolation-filters:linearRGB;solid-color:#000000;solid-opacity:1;vector-effect:none;fill:#e15361;fill-opacity:1;fill-rule:nonzero;stroke:none;stroke-width:1.01546192;stroke-linecap:butt;stroke-linejoin:miter;stroke-miterlimit:4;stroke-dasharray:none;stroke-dashoffset:0;stroke-opacity:1;paint-order:fill markers stroke;color-rendering:auto;image-rendering:auto;shape-rendering:auto;text-rendering:auto;enable-background:accumulate"
         d="m -242.54835,82.273096 2.43721,-3.195237 c -1.31441,3.063008 -1.2308,6.736296 -0.71882,11.924037 l -1.85431,0.391638 c -0.37125,-3.761735 -0.68401,-6.233862 0.13592,-9.120438 z"
         id="path1412"
         inkscape:connector-curvature="0"
         sodipodi:nodetypes="ccccc" />
      <path
         style="opacity:1;vector-effect:none;fill:none;fill-opacity:1;stroke:#868e96;stroke-width:0.5;stroke-linecap:butt;stroke-linejoin:miter;stroke-miterlimit:4;stroke-dasharray:none;stroke-dashoffset:0;stroke-opacity:1;paint-order:fill markers stroke"
         d="m -237.97833,75.825998 c -4.63814,4.539086 -6.34151,10.892312 -8.7609,16.802922 0,0 6.75632,-1.889881 8.7407,-1.889881 1.98437,0 1.93712,0.566965 1.93712,0.566965 l -0.33073,1.322916 c 0,0 7.9375,2.456844 9.40216,3.874254 1.46466,1.417413 1.65365,1.889882 1.65365,1.889882 0,0 -3.35454,-5.905878 -7.55953,-9.874628 -4.20498,-3.96875 -4.7247,-7.134299 -4.77194,-8.598959 0.007,-1.662308 -0.18219,-4.564036 -0.31053,-4.093471 z"
         id="path174"
         inkscape:connector-curvature="0"
         sodipodi:nodetypes="ccsccccscc" />
      <path
         style="opacity:1;vector-effect:none;fill:none;fill-opacity:1;stroke:#868e96;stroke-width:0.5;stroke-linecap:butt;stroke-linejoin:miter;stroke-miterlimit:4;stroke-dasharray:none;stroke-dashoffset:0;stroke-opacity:1;paint-order:fill markers stroke"
         d="m -235.58894,85.423747 c 0,0 0.70871,4.748326 0.11812,5.315292 -0.59059,0.566965 -0.59059,0.566965 -0.59059,0.566965 l -0.33073,1.322916 3.26926,0.875993 0.0617,-5.15185"
         id="path178"
         inkscape:connector-curvature="0" />
      <path
         style="opacity:1;vector-effect:none;fill:none;fill-opacity:1;stroke:#868e96;stroke-width:0.5;stroke-linecap:butt;stroke-linejoin:miter;stroke-miterlimit:4;stroke-dasharray:none;stroke-dashoffset:0;stroke-opacity:1;paint-order:fill markers stroke"
         d="m -234.36051,90.030334 v 1.913503"
         id="path180"
         inkscape:connector-curvature="0" />
      <path
         inkscape:connector-curvature="0"
         style="opacity:1;vector-effect:none;fill:none;fill-opacity:1;stroke:#868e96;stroke-width:0.5;stroke-linecap:butt;stroke-linejoin:miter;stroke-miterlimit:4;stroke-dasharray:none;stroke-dashoffset:0;stroke-opacity:1;paint-order:fill markers stroke"
         d="m -191.69645,184.90236 c -9.22871,6.00976 -21.19339,7.09479 -33.63988,6.73553 -12.44649,0.35926 -24.41117,-0.72577 -33.63988,-6.73553"
         id="path184" />
      <path
         inkscape:connector-curvature="0"
         id="path1322"
         d="m -188.48974,130.03159 1.1192,2.656 1.51799,-0.34233 5.39551,-1.20271 6.71514,-2.65599 5.01341,-2.81479 -0.11903,-0.69312 -0.95006,-2.71458 -4.91317,2.88162 -5.62936,2.32191 -4.15938,1.41986 z"
         style="opacity:1;vector-effect:none;fill:#e15361;fill-opacity:1;stroke:none;stroke-width:1;stroke-linecap:butt;stroke-linejoin:miter;stroke-miterlimit:4;stroke-dasharray:none;stroke-dashoffset:0;stroke-opacity:1;paint-order:fill markers stroke" />
      <path
         sodipodi:nodetypes="ccccc"
         inkscape:connector-curvature="0"
         id="path1402"
         d="m -208.40202,81.93943 -2.48849,-3.262476 c 1.34207,3.127465 1.2567,6.878051 0.73395,12.17496 l 1.89333,0.399879 c 0.37905,-3.840894 0.69839,-6.365044 -0.13879,-9.312363 z"
         style="color:#000000;font-style:normal;font-variant:normal;font-weight:normal;font-stretch:normal;font-size:medium;line-height:normal;font-family:sans-serif;font-variant-ligatures:normal;font-variant-position:normal;font-variant-caps:normal;font-variant-numeric:normal;font-variant-alternates:normal;font-feature-settings:normal;text-indent:0;text-align:start;text-decoration:none;text-decoration-line:none;text-decoration-style:solid;text-decoration-color:#000000;letter-spacing:normal;word-spacing:normal;text-transform:none;writing-mode:lr-tb;direction:ltr;text-orientation:mixed;dominant-baseline:auto;baseline-shift:baseline;text-anchor:start;white-space:normal;shape-padding:0;clip-rule:nonzero;display:inline;overflow:visible;visibility:visible;opacity:1;isolation:auto;mix-blend-mode:normal;color-interpolation:sRGB;color-interpolation-filters:linearRGB;solid-color:#000000;solid-opacity:1;vector-effect:none;fill:#e15361;fill-opacity:1;fill-rule:nonzero;stroke:none;stroke-width:1.03683066;stroke-linecap:butt;stroke-linejoin:miter;stroke-miterlimit:4;stroke-dasharray:none;stroke-dashoffset:0;stroke-opacity:1;paint-order:fill markers stroke;color-rendering:auto;image-rendering:auto;shape-rendering:auto;text-rendering:auto;enable-background:accumulate" />
      <g
         transform="translate(-172.13619,6.5396353)"
         id="g166"
         style="stroke:#42474c">
        <path
           style="opacity:1;vector-effect:none;fill:none;fill-opacity:1;stroke:#868e96;stroke-width:0.5;stroke-linecap:butt;stroke-linejoin:miter;stroke-miterlimit:4;stroke-dasharray:none;stroke-dashoffset:0;stroke-opacity:1;paint-order:fill markers stroke"
           d="m -16.353554,123.49196 c 5.977746,-1.42081 12.6624135,-3.92331 18.6921623,-7.76752"
           id="path147"
           inkscape:connector-curvature="0"
           sodipodi:nodetypes="cc" />
        <path
           style="opacity:1;vector-effect:none;fill:none;fill-opacity:1;stroke:#868e96;stroke-width:0.5;stroke-linecap:butt;stroke-linejoin:miter;stroke-miterlimit:4;stroke-dasharray:none;stroke-dashoffset:0;stroke-opacity:1;paint-order:fill markers stroke"
           d="m -19.844762,119.46622 c 1.957172,-11.72214 3.846513,-23.413449 7.14946,-35.747305"
           id="path149"
           inkscape:connector-curvature="0"
           sodipodi:nodetypes="cc" />
        <path
           sodipodi:nodetypes="ccsccccscc"
           style="opacity:1;vector-effect:none;fill:none;fill-opacity:1;stroke:#868e96;stroke-width:0.5;stroke-linecap:butt;stroke-linejoin:miter;stroke-miterlimit:4;stroke-dasharray:none;stroke-dashoffset:0;stroke-opacity:1;paint-order:fill markers stroke"
           d="m -40.558151,69.286363 c 0.874971,-0.937893 7.20832,10.462254 8.760905,16.802922 0,0 -6.756326,-1.889881 -8.740701,-1.889881 -1.984375,0 -1.937126,0.566965 -1.937126,0.566965 l 0.330729,1.322916 c 0,0 -7.937499,2.456844 -9.402159,3.874254 -1.464656,1.417413 -1.653646,1.889882 -1.653646,1.889882 0,0 3.354539,-5.905878 7.559525,-9.874628 4.204985,-3.96875 4.724701,-7.134299 4.771948,-8.598959 0.04725,-1.464656 0.310525,-4.093471 0.310525,-4.093471 z"
           id="path151"
           inkscape:connector-curvature="0" />
        <path
           style="opacity:1;vector-effect:none;fill:none;fill-opacity:1;stroke:#868e96;stroke-width:0.5;stroke-linecap:butt;stroke-linejoin:miter;stroke-miterlimit:4;stroke-dasharray:none;stroke-dashoffset:0;stroke-opacity:1;paint-order:fill markers stroke"
           d="m -42.947544,78.884112 c 0,0 -0.708708,4.748326 -0.118118,5.315292 0.590589,0.566965 0.590589,0.566965 0.590589,0.566965 l 0.330729,1.322916 -3.269252,0.875993 -0.06166,-5.15185"
           id="path155"
           inkscape:connector-curvature="0" />
        <path
           style="opacity:1;vector-effect:none;fill:none;fill-opacity:1;stroke:#868e96;stroke-width:0.5;stroke-linecap:butt;stroke-linejoin:miter;stroke-miterlimit:4;stroke-dasharray:none;stroke-dashoffset:0;stroke-opacity:1;paint-order:fill markers stroke"
           d="m -44.175968,83.490699 v 1.913503"
           id="path157"
           inkscape:connector-curvature="0" />
      </g>
      <path
         inkscape:connector-curvature="0"
         id="path1320"
         d="m -223.18659,96.550426 0.0389,11.744964 -0.0389,3.7993 h -4.51209 l -0.032,-7.8153 0.032,-3.31137 3.10995,-4.011922 z"
         style="opacity:1;vector-effect:none;fill:#e15361;fill-opacity:1;stroke:none;stroke-width:1;stroke-linecap:butt;stroke-linejoin:miter;stroke-miterlimit:4;stroke-dasharray:none;stroke-dashoffset:0;stroke-opacity:1;paint-order:fill markers stroke" />
      <path
         inkscape:connector-curvature="0"
         id="path190"
         d="m -223.18659,96.550427 v 15.544263 h -4.51209 v -11.12667 l 3.77976,-4.890063 z"
         style="opacity:1;vector-effect:none;fill:none;fill-opacity:1;stroke:#868e96;stroke-width:0.5;stroke-linecap:butt;stroke-linejoin:miter;stroke-miterlimit:4;stroke-dasharray:none;stroke-dashoffset:0;stroke-opacity:1;paint-order:fill markers stroke" />
      <circle
         r="0.9921875"
         cy="108.33855"
         cx="-225.31271"
         id="path192"
         style="opacity:1;vector-effect:none;fill:#8d1924;fill-opacity:1;stroke:#868e96;stroke-width:0.5;stroke-linecap:butt;stroke-linejoin:miter;stroke-miterlimit:4;stroke-dasharray:none;stroke-dashoffset:0;stroke-opacity:1;paint-order:fill markers stroke" />
      <circle
         style="opacity:1;vector-effect:none;fill:#8d1924;fill-opacity:1;stroke:#868e96;stroke-width:0.5;stroke-linecap:butt;stroke-linejoin:miter;stroke-miterlimit:4;stroke-dasharray:none;stroke-dashoffset:0;stroke-opacity:1;paint-order:fill markers stroke"
         id="circle194"
         cx="-225.31271"
         cy="102.33817"
         r="0.9921875" />
      <path
         sodipodi:nodetypes="sscccccccsss"
         inkscape:connector-curvature="0"
         id="rect196"
         d="m -217.41662,107.71795 c -0.53753,0 -0.97049,0.38665 -0.97049,0.86713 v 2.17299 3.56929 11.72539 l 9.11728,3.77518 9.11727,-3.77518 v -11.72539 -3.56929 -2.17299 c 0,-0.48048 -0.43296,-0.86713 -0.97049,-0.86713 z"
         style="opacity:1;vector-effect:none;fill:#e15361;fill-opacity:1;stroke:#868e96;stroke-width:0.47341576;stroke-linecap:butt;stroke-linejoin:miter;stroke-miterlimit:4;stroke-dasharray:none;stroke-dashoffset:0;stroke-opacity:1;paint-order:fill markers stroke" />
      <path
         id="path201"
         d="m -217.41662,107.71795 c -0.53753,0 -0.97049,0.38665 -0.97049,0.86713 v 2.17299 0.32763 h 18.23455 v -0.32763 -2.17299 c 0,-0.48048 -0.43296,-0.86713 -0.97049,-0.86713 z"
         style="opacity:1;vector-effect:none;fill:#8d1924;fill-opacity:1;stroke:#868e96;stroke-width:0.47341576;stroke-linecap:butt;stroke-linejoin:miter;stroke-miterlimit:4;stroke-dasharray:none;stroke-dashoffset:0;stroke-opacity:1;paint-order:fill markers stroke"
         inkscape:connector-curvature="0" />
      <path
         style="opacity:1;vector-effect:none;fill:none;fill-opacity:1;stroke:#868e96;stroke-width:1;stroke-linecap:butt;stroke-linejoin:miter;stroke-miterlimit:4;stroke-dasharray:none;stroke-dashoffset:0;stroke-opacity:1;paint-order:fill markers stroke"
         d="m -258.97621,188.49313 c 2.06082,-30.48033 2.14361,-51.25031 0.28449,-62.48727 l -4.07586,4.87766 -0.53454,1.80407 c -7.6289,-0.92372 -13.09106,-4.01418 -18.64205,-7.01582 l 1.06908,-3.40769 c -1.44391,-6.7324 9.74197,-30.735452 15.03391,-32.00553 l 23.15223,-8.619441 4.71062,-5.813111 c 4.10203,-1.853528 9.49262,-1.33635 12.642,-1.33635 3.14939,0 8.53997,-0.517178 12.642,1.33635 l 4.60299,6.033134 23.25986,8.399418 c 5.29194,1.270078 16.47782,25.27313 15.03391,32.00553 l 1.06908,3.40769 c -5.55099,3.00164 -11.01315,6.0921 -18.64205,7.01582 l -0.53454,-1.80407 -4.07586,-4.87766 c -1.85912,11.23696 -1.77633,32.00694 0.28449,62.48727 -9.22871,6.00976 -21.19339,7.09479 -33.63988,6.73553 -12.44649,0.35926 -24.41117,-0.72577 -33.63988,-6.73553 z"
         id="path168"
         inkscape:connector-curvature="0"
         sodipodi:nodetypes="ccccccccccccccccccccc" />
    </g>
    <g
       id="g2303">
      <path
         sodipodi:nodetypes="ccccccccccccccccccccc"
         inkscape:connector-curvature="0"
         id="path243"
         d="m 31.434538,188.49313 c 2.060824,-30.48033 2.143615,-51.25031 0.284494,-62.48727 l -4.07586,4.87766 -0.534539,1.80407 C 19.479729,131.76387 14.01757,128.67341 8.4665836,125.67177 l 1.0690781,-3.40769 C 8.0917499,115.53168 19.277627,91.528628 24.569572,90.25855 l 23.519719,-8.352171 4.34313,-6.080381 c 4.102033,-1.853528 9.492614,-1.33635 12.641999,-1.33635 3.149385,0 8.539966,-0.517178 12.641999,1.33635 l 4.34313,6.080381 23.519721,8.352171 c 5.29194,1.270078 16.47782,25.27313 15.03391,32.00553 l 1.06908,3.40769 c -5.55099,3.00164 -11.01315,6.0921 -18.64205,7.01582 l -0.53454,-1.80407 -4.075862,-4.87766 c -1.859121,11.23696 -1.77633,32.00694 0.284494,62.48727 -9.228715,6.00976 -21.193393,7.09479 -33.639882,6.73553 -12.446489,0.35926 -24.411167,-0.72577 -33.639882,-6.73553 z"
         style="opacity:1;vector-effect:none;fill:#ffffff;fill-opacity:1;stroke:#868e96;stroke-width:1;stroke-linecap:butt;stroke-linejoin:miter;stroke-miterlimit:4;stroke-dasharray:none;stroke-dashoffset:0;stroke-opacity:1;paint-order:fill markers stroke" />
      <path
         style="opacity:1;vector-effect:none;fill:#e15361;fill-opacity:1;stroke:none;stroke-width:1;stroke-linecap:butt;stroke-linejoin:miter;stroke-miterlimit:4;stroke-dasharray:none;stroke-dashoffset:0;stroke-opacity:1;paint-order:fill markers stroke"
         d="m 101.92101,130.03159 1.1192,2.656 1.51799,-0.34233 5.39551,-1.20271 6.71514,-2.65599 5.01341,-2.81479 -0.11903,-0.69312 -0.95006,-2.71458 -4.91317,2.88162 -5.62936,2.32191 -4.15938,1.41986 z"
         id="path1462"
         inkscape:connector-curvature="0" />
      <path
         inkscape:connector-curvature="0"
         id="path1322-2"
         d="m 28.227837,130.03159 -1.1192,2.656 -1.51799,-0.34233 -5.39551,-1.20271 -6.715139,-2.65599 -5.0134104,-2.81479 0.11903,-0.69312 0.95006,-2.71458 4.9131704,2.88162 5.629359,2.32191 4.15938,1.41986 z"
         style="opacity:1;vector-effect:none;fill:#e15361;fill-opacity:1;stroke:none;stroke-width:1;stroke-linecap:butt;stroke-linejoin:miter;stroke-miterlimit:4;stroke-dasharray:none;stroke-dashoffset:0;stroke-opacity:1;paint-order:fill markers stroke" />
      <path
         sodipodi:nodetypes="cc"
         inkscape:connector-curvature="0"
         id="path245"
         d="M 28.227824,130.0316 C 22.250078,128.61079 15.56541,126.10829 9.5356617,122.26408"
         style="opacity:1;vector-effect:none;fill:none;fill-opacity:1;stroke:#868e96;stroke-width:0.5;stroke-linecap:butt;stroke-linejoin:miter;stroke-miterlimit:4;stroke-dasharray:none;stroke-dashoffset:0;stroke-opacity:1;paint-order:fill markers stroke" />
      <path
         sodipodi:nodetypes="cc"
         inkscape:connector-curvature="0"
         id="path247"
         d="M 31.719032,126.00586 C 29.76186,114.28372 27.872519,102.59241 24.569572,90.25855"
         style="opacity:1;vector-effect:none;fill:none;fill-opacity:1;stroke:#868e96;stroke-width:0.5;stroke-linecap:butt;stroke-linejoin:miter;stroke-miterlimit:4;stroke-dasharray:none;stroke-dashoffset:0;stroke-opacity:1;paint-order:fill markers stroke" />
      <path
         id="path257"
         d="m 98.714302,184.90236 c -9.228715,6.00976 -21.193393,7.09479 -33.639882,6.73553 -12.446489,0.35926 -24.411167,-0.72577 -33.639882,-6.73553"
         style="opacity:1;vector-effect:none;fill:none;fill-opacity:1;stroke:#868e96;stroke-width:0.5;stroke-linecap:butt;stroke-linejoin:miter;stroke-miterlimit:4;stroke-dasharray:none;stroke-dashoffset:0;stroke-opacity:1;paint-order:fill markers stroke"
         inkscape:connector-curvature="0" />
      <path
         style="opacity:1;vector-effect:none;fill:none;fill-opacity:1;stroke:#868e96;stroke-width:0.5;stroke-linecap:butt;stroke-linejoin:miter;stroke-miterlimit:4;stroke-dasharray:none;stroke-dashoffset:0;stroke-opacity:1;paint-order:fill markers stroke"
         d="m 101.92102,130.0316 c 5.97774,-1.42081 12.66241,-3.92331 18.69216,-7.76752"
         id="path229"
         inkscape:connector-curvature="0"
         sodipodi:nodetypes="cc" />
      <path
         style="opacity:1;vector-effect:none;fill:none;fill-opacity:1;stroke:#868e96;stroke-width:0.5;stroke-linecap:butt;stroke-linejoin:miter;stroke-miterlimit:4;stroke-dasharray:none;stroke-dashoffset:0;stroke-opacity:1;paint-order:fill markers stroke"
         d="m 98.429808,126.00586 c 1.957172,-11.72214 3.846512,-23.41345 7.149462,-35.74731"
         id="path231"
         inkscape:connector-curvature="0"
         sodipodi:nodetypes="cc" />
      <path
         sodipodi:nodetypes="cc"
         inkscape:connector-curvature="0"
         id="path273"
         d="m 47.475084,82.237108 c 6.503757,0.386207 22.593728,0.471336 35.104184,0"
         style="opacity:1;vector-effect:none;fill:none;fill-opacity:1;stroke:#868e96;stroke-width:0.5;stroke-linecap:butt;stroke-linejoin:miter;stroke-miterlimit:4;stroke-dasharray:none;stroke-dashoffset:0;stroke-opacity:1;paint-order:fill markers stroke" />
      <path
         id="path1479"
         transform="scale(0.26458333)"
         d="m 247.90625,293.25977 c -19.15861,0.0482 -38.66056,0.86529 -53.60547,1.99609 l -4.3164,6.03906 c 30.38818,-2.61682 87.18231,-3.77488 112.54101,0.85352 l -4.61914,-6.46485 c -13.29699,-1.79617 -31.46567,-2.47049 -50,-2.42382 z"
         style="color:#000000;font-style:normal;font-variant:normal;font-weight:normal;font-stretch:normal;font-size:medium;line-height:normal;font-family:sans-serif;font-variant-ligatures:normal;font-variant-position:normal;font-variant-caps:normal;font-variant-numeric:normal;font-variant-alternates:normal;font-feature-settings:normal;text-indent:0;text-align:start;text-decoration:none;text-decoration-line:none;text-decoration-style:solid;text-decoration-color:#000000;letter-spacing:normal;word-spacing:normal;text-transform:none;writing-mode:lr-tb;direction:ltr;text-orientation:mixed;dominant-baseline:auto;baseline-shift:baseline;text-anchor:start;white-space:normal;shape-padding:0;clip-rule:nonzero;display:inline;overflow:visible;visibility:visible;opacity:1;isolation:auto;mix-blend-mode:normal;color-interpolation:sRGB;color-interpolation-filters:linearRGB;solid-color:#000000;solid-opacity:1;vector-effect:none;fill:#e15361;fill-opacity:1;fill-rule:nonzero;stroke:none;stroke-width:5.6692915;stroke-linecap:butt;stroke-linejoin:miter;stroke-miterlimit:4;stroke-dasharray:none;stroke-dashoffset:0;stroke-opacity:1;paint-order:fill markers stroke;color-rendering:auto;image-rendering:auto;shape-rendering:auto;text-rendering:auto;enable-background:accumulate"
         inkscape:connector-curvature="0" />
    </g>
  </g>
</svg>
